<?xml version="1.0" encoding="utf-8"?>
<!-- Generator: Adobe Illustrator 19.2.1, SVG Export Plug-In . SVG Version: 6.00 Build 0)  -->
<svg version="1.1" id="Layer_1" xmlns="http://www.w3.org/2000/svg" xmlns:xlink="http://www.w3.org/1999/xlink" x="0px" y="0px"
	 viewBox="0 0 72 72" style="enable-background:new 0 0 72 72;" width="20" xml:space="preserve">
<style type="text/css">
	.st0{fill:none;}
	.st1{clip-path:url(#SVGID_2_);fill:url(#SVGID_3_);}
	.st2{clip-path:url(#SVGID_5_);fill:url(#SVGID_6_);}
	.st3{clip-path:url(#SVGID_8_);fill:url(#SVGID_9_);}
	.st4{clip-path:url(#SVGID_11_);fill:url(#SVGID_12_);}
	.st5{clip-path:url(#SVGID_14_);}
	.st6{fill:url(#SVGID_15_);}
	.st7{clip-path:url(#SVGID_17_);}
	.st8{fill:url(#SVGID_18_);}
	.st9{clip-path:url(#SVGID_20_);fill:none;}
	.st10{clip-path:url(#SVGID_22_);fill:none;}
</style>
<rect x="14" y="17" class="st0" width="44" height="40"/>
<g>
	<g>
		<defs>
			<path id="SVGID_1_" d="M5.8,21h6L65.1,6.1C67,5.5,69,7,69,9v48.1c0,2-2,3.5-3.8,2.9l-36.7-9.3l-3,13.1c-0.3,1.4-1.5,2.3-2.9,2.3
				h-3.5c-1.7,0-3-1.5-3-3.2V47.6l-4.5-1.2l-6,0.2c-1.7,0-3-1.4-3-3V24C2.8,22.4,4.1,21,5.8,21z"/>
		</defs>
		<clipPath id="SVGID_2_">
			<use xlink:href="#SVGID_1_"  style="overflow:visible;"/>
		</clipPath>
		
			<linearGradient id="SVGID_3_" gradientUnits="userSpaceOnUse" x1="3.1893" y1="25.6895" x2="14.9" y2="57.8645" gradientTransform="matrix(1 0 0 -1 0 71.89)">
			<stop  offset="0" style="stop-color:#303C4D"/>
			<stop  offset="1" style="stop-color:#576B7C"/>
		</linearGradient>
		<path class="st1" d="M11.8,46.6h-6c-1.7,0-3-1.4-3-3V24c0-1.7,1.4-3,3-3h6V46.6z"/>
	</g>
	<g>
		<defs>
			<path id="SVGID_4_" d="M5.8,21h6L65.1,6.1C67,5.5,69,7,69,9v48.1c0,2-2,3.5-3.8,2.9l-36.7-9.3l-3,13.1c-0.3,1.4-1.5,2.3-2.9,2.3
				h-3.5c-1.7,0-3-1.5-3-3.2V47.6l-4.5-1.2l-6,0.2c-1.7,0-3-1.4-3-3V24C2.8,22.4,4.1,21,5.8,21z"/>
		</defs>
		<clipPath id="SVGID_5_">
			<use xlink:href="#SVGID_4_"  style="overflow:visible;"/>
		</clipPath>
		
			<linearGradient id="SVGID_6_" gradientUnits="userSpaceOnUse" x1="15.1079" y1="28.3867" x2="20.8795" y2="44.244" gradientTransform="matrix(1 0 0 -1 0 71.89)">
			<stop  offset="0" style="stop-color:#F2A300"/>
			<stop  offset="1" style="stop-color:#FFC533"/>
		</linearGradient>
		<polygon class="st2" points="11.8,46.6 11.8,21 30.4,33.2 		"/>
	</g>
	<g>
		<defs>
			<path id="SVGID_7_" d="M5.8,21h6L65.1,6.1C67,5.5,69,7,69,9v48.1c0,2-2,3.5-3.8,2.9l-36.7-9.3l-3,13.1c-0.3,1.4-1.5,2.3-2.9,2.3
				h-3.5c-1.7,0-3-1.5-3-3.2V47.6l-4.5-1.2l-6,0.2c-1.7,0-3-1.4-3-3V24C2.8,22.4,4.1,21,5.8,21z"/>
		</defs>
		<clipPath id="SVGID_8_">
			<use xlink:href="#SVGID_7_"  style="overflow:visible;"/>
		</clipPath>
		
			<linearGradient id="SVGID_9_" gradientUnits="userSpaceOnUse" x1="17.203" y1="7.591" x2="25.7988" y2="31.2078" gradientTransform="matrix(1 0 0 -1 0 71.89)">
			<stop  offset="0" style="stop-color:#303C4D"/>
			<stop  offset="1" style="stop-color:#576B7C"/>
		</linearGradient>
		<path class="st3" d="M25.3,63.8l4.5-18.8H16.3v18c0,1.7,1.4,3,3,3h3.2C23.8,66.1,25,65.2,25.3,63.8z"/>
	</g>
	<g>
		<defs>
			<path id="SVGID_10_" d="M5.8,21h6L65.1,6.1C67,5.5,69,7,69,9v48.1c0,2-2,3.5-3.8,2.9l-36.7-9.3l-3,13.1c-0.3,1.4-1.5,2.3-2.9,2.3
				h-3.5c-1.7,0-3-1.5-3-3.2V47.6l-4.5-1.2l-6,0.2c-1.7,0-3-1.4-3-3V24C2.8,22.4,4.1,21,5.8,21z"/>
		</defs>
		<clipPath id="SVGID_11_">
			<use xlink:href="#SVGID_10_"  style="overflow:visible;"/>
		</clipPath>
		
			<linearGradient id="SVGID_12_" gradientUnits="userSpaceOnUse" x1="45.462" y1="15.5196" x2="62.394" y2="62.0401" gradientTransform="matrix(1 0 0 -1 0 71.89)">
			<stop  offset="0" style="stop-color:#CD2332"/>
			<stop  offset="0.3178" style="stop-color:#D52A3A"/>
			<stop  offset="0.8204" style="stop-color:#EC3C4F"/>
			<stop  offset="1" style="stop-color:#F64458"/>
		</linearGradient>
		<polygon class="st4" points="27.7,35.7 68.8,61.6 68.8,4.5 		"/>
	</g>
	<g>
		<defs>
			<path id="SVGID_13_" d="M5.8,21h6L65.1,6.1C67,5.5,69,7,69,9v48.1c0,2-2,3.5-3.8,2.9l-36.7-9.3l-3,13.1c-0.3,1.4-1.5,2.3-2.9,2.3
				h-3.5c-1.7,0-3-1.5-3-3.2V47.6l-4.5-1.2l-6,0.2c-1.7,0-3-1.4-3-3V24C2.8,22.4,4.1,21,5.8,21z"/>
		</defs>
		<clipPath id="SVGID_14_">
			<use xlink:href="#SVGID_13_"  style="overflow:visible;"/>
		</clipPath>
		<g class="st5">
			
				<image style="overflow:visible;opacity:0.25;enable-background:new    ;" width="90" height="56" xlink:href="688165FC8C02C4C2.png"  transform="matrix(0.7051 0 0 0.6953 9.0577 26.3839)">
			</image>
			<g>
				
					<linearGradient id="SVGID_15_" gradientUnits="userSpaceOnUse" x1="37.8059" y1="8.9633" x2="43.4971" y2="24.5998" gradientTransform="matrix(1 0 0 -1 0 71.89)">
					<stop  offset="0" style="stop-color:#D11A37"/>
					<stop  offset="1" style="stop-color:#E21B3B"/>
				</linearGradient>
				<polygon class="st6" points="33.2,27.9 11.8,46.4 70.4,61.6 				"/>
			</g>
		</g>
	</g>
	<g>
		<defs>
			<path id="SVGID_16_" d="M5.8,21h6L65.1,6.1C67,5.5,69,7,69,9v48.1c0,2-2,3.5-3.8,2.9l-36.7-9.3l-3,13.1c-0.3,1.4-1.5,2.3-2.9,2.3
				h-3.5c-1.7,0-3-1.5-3-3.2V47.6l-4.5-1.2l-6,0.2c-1.7,0-3-1.4-3-3V24C2.8,22.4,4.1,21,5.8,21z"/>
		</defs>
		<clipPath id="SVGID_17_">
			<use xlink:href="#SVGID_16_"  style="overflow:visible;"/>
		</clipPath>
		<g class="st7">
			
				<image style="overflow:visible;opacity:0.15;enable-background:new    ;" width="90" height="56" xlink:href="688165FC8C02C4C6.png"  transform="matrix(0.7051 0 0 0.6953 8.7999 2.8757)">
			</image>
			<g>
				
					<linearGradient id="SVGID_18_" gradientUnits="userSpaceOnUse" x1="24.6151" y1="15.1282" x2="40.9669" y2="58.892" gradientTransform="matrix(1 0 0 -1 0 71.89)">
					<stop  offset="0" style="stop-color:#E91C2D"/>
					<stop  offset="1" style="stop-color:#FB4B5B"/>
				</linearGradient>
				<path class="st8" d="M34,37.7L70.4,4.5L11.8,21l20,16.7C32.5,38.3,33.4,38.3,34,37.7z"/>
			</g>
		</g>
	</g>
	<g>
		<defs>
			<path id="SVGID_19_" d="M5.8,21h6L65.1,6.1C67,5.5,69,7,69,9v48.1c0,2-2,3.5-3.8,2.9l-36.7-9.3l-3,13.1c-0.3,1.4-1.5,2.3-2.9,2.3
				h-3.5c-1.7,0-3-1.5-3-3.2V47.6l-4.5-1.2l-6,0.2c-1.7,0-3-1.4-3-3V24C2.8,22.4,4.1,21,5.8,21z"/>
		</defs>
		<clipPath id="SVGID_20_">
			<use xlink:href="#SVGID_19_"  style="overflow:visible;"/>
		</clipPath>
		<line class="st9" x1="69.3" y1="61.3" x2="11.8" y2="20.6"/>
	</g>
	<g>
		<defs>
			<path id="SVGID_21_" d="M5.8,21h6L65.1,6.1C67,5.5,69,7,69,9v48.1c0,2-2,3.5-3.8,2.9l-36.7-9.3l-3,13.1c-0.3,1.4-1.5,2.3-2.9,2.3
				h-3.5c-1.7,0-3-1.5-3-3.2V47.6l-4.5-1.2l-6,0.2c-1.7,0-3-1.4-3-3V24C2.8,22.4,4.1,21,5.8,21z"/>
		</defs>
		<clipPath id="SVGID_22_">
			<use xlink:href="#SVGID_21_"  style="overflow:visible;"/>
		</clipPath>
		<line class="st10" x1="9.4" y1="48.1" x2="70.4" y2="5.1"/>
	</g>
</g>
</svg>
